<svg width="163" height="48" viewBox="0 0 163 48" fill="none" xmlns="http://www.w3.org/2000/svg">
<path d="M30.5018 29.4122C30.2665 29.8828 29.9136 30.2357 29.5607 30.3534C29.3254 30.471 29.0901 30.471 28.9724 30.471H10.2671C12.8553 35.8826 18.6198 39.5296 25.0902 39.059C31.7959 38.5884 37.5604 33.5297 38.8545 26.824C39.2074 24.7065 39.2074 22.7065 38.8545 20.8242H23.4432L30.0312 27.4123C30.1489 27.5299 30.2665 27.7652 30.3842 28.0005C30.5018 28.2358 30.5018 28.4711 30.5018 28.5887C30.6194 29.0593 30.5018 29.2946 30.5018 29.4122Z" fill="url(#paint0_radial_1730_6221)"/>
<path d="M42.5017 20.942C42.6193 21.8831 42.737 22.9419 42.737 24.0007C42.737 34.3533 34.3843 42.706 24.0316 42.706C15.5613 42.706 8.38503 37.0591 6.03216 29.2947C6.03216 29.177 6.03216 29.177 5.91452 29.0594C4.97337 25.7653 4.85572 22.1184 6.03216 18.3538C8.50268 11.1775 14.8554 6.00121 22.3846 5.29535C28.2668 4.82477 33.5608 7.06 37.3254 10.8246C38.3842 12.001 37.6783 13.8833 36.0313 13.8833C35.5607 13.8833 35.0901 13.648 34.7372 13.2951C31.7961 10.2364 27.4433 8.47173 22.6199 8.82466C16.0319 9.41288 10.385 14.4716 9.0909 21.0596C8.73796 23.1772 8.73796 25.1771 9.0909 27.0594H24.5022L17.9142 20.4714C17.7965 20.3537 17.6789 20.1184 17.5612 19.8832C17.4436 19.6479 17.4436 19.4126 17.4436 19.2949C17.4436 19.0597 17.4436 18.8244 17.5612 18.7067C17.7965 18.2362 18.0318 17.8832 18.5024 17.7656C18.7377 17.6479 18.973 17.6479 19.0906 17.6479H37.6783H41.5605H47.0898C44.2663 7.29529 34.8549 -0.116263 23.7964 0.00138083C11.2085 0.119025 0.738196 10.2364 0.0323345 22.7066C-0.673527 36.5886 10.2673 48 24.0316 48C37.3254 48 48.0309 37.2944 48.0309 24.0007C48.0309 22.9419 47.9133 22.0007 47.7957 20.942H42.5017Z" fill="url(#paint1_radial_1730_6221)"/>
<path d="M67.7606 17.6476L65.8783 18.7064C65.5254 18.1181 65.1725 17.7652 64.9372 17.5299C64.5843 17.2946 64.2313 17.177 63.6431 17.177C63.0549 17.177 62.4667 17.4123 62.1137 17.7652C61.6432 18.1181 61.5255 18.5887 61.5255 19.0593C61.5255 19.7652 62.1138 20.3534 63.1725 20.8239L64.7019 21.4122C65.996 21.8827 66.8195 22.471 67.4077 23.2945C67.9959 24.0003 68.2312 24.9415 68.2312 26.0003C68.2312 27.412 67.7606 28.5884 66.8195 29.5296C65.8783 30.4707 64.7019 30.9413 63.2902 30.9413C61.9961 30.9413 60.8197 30.5884 59.9962 29.7649C59.1727 28.9414 58.5844 27.8826 58.4668 26.4708L60.8197 26.0003C60.9373 26.9414 61.055 27.5296 61.4079 27.8826C61.8785 28.5884 62.5843 28.8237 63.5255 28.8237C64.2313 28.8237 64.8196 28.5884 65.2901 28.1179C65.7607 27.6473 65.996 27.0591 65.996 26.2356C65.996 25.8826 65.996 25.6473 65.8783 25.412C65.7607 25.1768 65.6431 24.9415 65.5254 24.7062C65.4078 24.4709 65.1725 24.3533 64.8196 24.118C64.5843 23.8827 64.2313 23.765 63.8784 23.6474L62.4667 23.0592C60.3491 22.2357 59.2903 20.9416 59.2903 19.1769C59.2903 18.0005 59.7609 17.0593 60.5844 16.3535C61.4079 15.53 62.5843 15.177 63.8784 15.177C65.4078 15.0594 66.7019 15.8829 67.7606 17.6476Z" fill="#414042"/>
<path d="M74.2309 20.9419V26.4711C74.2309 28.1182 74.8191 28.824 76.1132 28.824C77.4073 28.824 77.9955 28.0005 77.9955 26.4711V20.9419H80.2307V26.4711C80.2307 27.2947 80.1131 27.8829 79.9954 28.4711C79.7601 28.9417 79.5249 29.4122 79.0543 29.7652C78.3484 30.471 77.4073 30.7063 76.2308 30.7063C75.0544 30.7063 74.1133 30.3534 73.4074 29.7652C72.9368 29.4122 72.5839 28.9417 72.4662 28.4711C72.231 28.0005 72.231 27.4123 72.231 26.4711V20.9419H74.2309Z" fill="#414042"/>
<path d="M86.7011 13.8833V22.0007C87.6422 21.0596 88.5833 20.589 89.7598 20.589C91.0539 20.589 92.1127 21.0596 92.9362 22.0007C93.7597 22.9419 94.2302 24.1183 94.2302 25.6477C94.2302 27.177 93.7597 28.3535 92.9362 29.2946C92.1127 30.2358 90.9362 30.7063 89.6421 30.7063C88.5834 30.7063 87.5246 30.2358 86.7011 29.4123V30.5887H84.4658V13.8833H86.7011ZM91.995 25.7653C91.995 24.8242 91.7597 24.1183 91.2892 23.5301C90.8186 22.9419 90.1127 22.5889 89.4069 22.5889C88.5833 22.5889 87.8775 22.8242 87.4069 23.4124C86.9363 24.0007 86.7011 24.7065 86.7011 25.6477C86.7011 26.5888 86.9363 27.2947 87.4069 27.8829C87.8775 28.4711 88.5833 28.7064 89.4069 28.7064C90.2304 28.7064 90.8186 28.4711 91.2892 27.8829C91.7597 27.4123 91.995 26.7065 91.995 25.7653Z" fill="#414042"/>
<path d="M113.995 30.8238H111.053L109.877 29.6474C108.583 30.4709 107.171 30.8238 105.642 30.8238C103.642 30.8238 101.877 30.118 100.23 28.8239C98.5832 27.2945 97.6421 25.4122 97.6421 23.0593C97.6421 20.8241 98.4656 18.8242 100.113 17.2948C101.642 15.7654 103.524 15.0596 105.642 15.0596C107.524 15.0596 109.289 15.7654 110.818 17.0595C112.7 18.5889 113.524 20.7065 113.524 23.177C113.524 25.1769 112.818 26.9416 111.289 28.4709L113.995 30.8238ZM107.759 24.4711L109.995 26.7063C110.936 25.6475 111.406 24.4711 111.406 22.9417C111.406 21.2947 110.818 19.883 109.759 18.8242C108.701 17.7654 107.289 17.1772 105.76 17.1772C104.112 17.1772 102.818 17.7654 101.76 18.8242C100.701 19.883 100.23 21.2947 100.23 22.9417C100.23 24.5887 100.818 25.8828 101.877 26.9416C103.054 28.0004 104.348 28.5886 105.76 28.5886C106.701 28.5886 107.642 28.3533 108.465 27.8827L104.936 24.3534H107.759V24.4711Z" fill="#414042"/>
<path d="M119.877 20.9419V26.4711C119.877 28.1182 120.465 28.824 121.759 28.824C123.053 28.824 123.641 28.0005 123.641 26.4711V20.9419H125.877V26.4711C125.877 27.2947 125.759 27.8829 125.641 28.4711C125.406 28.9417 125.171 29.4122 124.7 29.7652C123.994 30.471 123.053 30.7063 121.877 30.7063C120.7 30.7063 119.759 30.3534 119.053 29.7652C118.583 29.4122 118.23 28.9417 118.112 28.4711C117.877 28.0005 117.877 27.4123 117.877 26.4711V20.9419H119.877Z" fill="#414042"/>
<path d="M138.935 26.2358H132.112C132.229 27.0593 132.465 27.6475 132.935 28.1181C133.406 28.5887 133.994 28.824 134.7 28.824C135.288 28.824 135.759 28.7063 136.112 28.471C136.465 28.2357 136.817 27.7652 137.288 27.0593L139.17 28.1181C138.935 28.5887 138.582 29.0592 138.229 29.4122C137.876 29.7651 137.523 30.0004 137.17 30.2357C136.817 30.471 136.347 30.5886 135.994 30.7063C135.523 30.8239 135.053 30.8239 134.582 30.8239C133.17 30.8239 131.994 30.3533 131.171 29.4122C130.347 28.471 129.876 27.2946 129.876 25.7652C129.876 24.2359 130.347 23.0594 131.171 22.1183C131.994 21.1771 133.17 20.7065 134.582 20.7065C135.994 20.7065 137.17 21.1771 137.876 22.0006C138.7 22.9418 139.053 24.1182 139.053 25.7652L138.935 26.2358ZM136.7 24.4711C136.347 23.2947 135.641 22.7065 134.465 22.7065C134.229 22.7065 133.994 22.7065 133.759 22.8241C133.523 22.9418 133.288 23.0594 133.17 23.1771C132.935 23.2947 132.818 23.53 132.7 23.7653C132.582 24.0006 132.465 24.2359 132.347 24.4711H136.7Z" fill="#414042"/>
<path d="M142.935 20.9418H145.17V21.7653C145.523 21.2948 145.994 21.0595 146.229 20.9418C146.582 20.8242 146.935 20.7065 147.406 20.7065C147.994 20.7065 148.582 20.9418 149.288 21.2948L148.229 23.2947C147.758 22.9418 147.406 22.8241 147.053 22.8241C145.876 22.8241 145.288 23.7653 145.288 25.5299V30.5886H143.053V20.9418H142.935Z" fill="#414042"/>
<path d="M155.876 28.7064L151.523 20.9419H154.111L157.052 26.4711L159.758 20.9419H162.229L154.582 35.765H151.994L155.876 28.7064Z" fill="#414042"/>
<defs>
<radialGradient id="paint0_radial_1730_6221" cx="0" cy="0" r="1" gradientUnits="userSpaceOnUse" gradientTransform="translate(3.90548 -0.294465) scale(53.4709)">
<stop offset="0.475" stop-color="#4388DD"/>
<stop offset="0.9988" stop-color="#FF4581"/>
</radialGradient>
<radialGradient id="paint1_radial_1730_6221" cx="0" cy="0" r="1" gradientUnits="userSpaceOnUse" gradientTransform="translate(3.90572 -0.294375) scale(53.4709)">
<stop offset="0.475" stop-color="#4388DD"/>
<stop offset="0.9988" stop-color="#FF4581"/>
</radialGradient>
</defs>
</svg>
